<svg version="1.1" xmlns="http://www.w3.org/2000/svg" viewBox="-1872.3510238625383 -5525.575592820383 8913.853978051642 8914.063094232204"><desc>Created with Snap</desc><defs></defs><g><g transform="matrix(20.8912,0,0,20.8912,-1593.6673,-5246.7873)">
<g id="gSl089kbnw15u">
	<g>
		<path d="M361.85498,132.95007l-21.40002-73.41016l-73.41003-21.3999l-66.54004-36.5l-0.5-0.28003l-67.04993,36.78003
			l-73.41003,21.3999l-21.3999,73.41016L1.63501,199.49011l-0.27002,0.51001l36.78003,67.03979l21.3999,73.42017l73.41003,21.3999
			l66.53992,36.5l0.51001,0.28003l67.04004-36.78003l73.41003-21.3999l21.40002-73.42017l36.51001-66.53979l0.27002-0.5
			L361.85498,132.95007z M367.20496,147.07019l17.91003,32.65991l-4.81006,16.51001l-13.71997-47.05005L367.20496,147.07019z
			 M43.21484,217.17004l-8.70996,29.88013l-13.70996-47.05005l13.70996-47.05005l8.70996,29.87988l-9.13989,16.66016
			l-0.28003,0.51001L43.21484,217.17004z M36.19495,200.00012l7.85999-14.31006l4.16992,14.31006l-4.17993,14.30981
			L36.19495,200.00012z M309.20496,96.10999l12.0199,6.59009l9.53003,32.67993L309.20496,96.10999z M307.32495,92.67004
			l-7.17004-13.06006l15.67004,4.56006l4.57007,15.67017L307.32495,92.67004z M317.5249,82.4801l-18.80005-5.47998
			l-14.96997-27.29004l42.95996,23.57007l23.58008,42.96997l-27.29004-14.97998L317.5249,82.4801z M303.88501,90.78992
			L264.625,69.25012l32.66992,9.52002L303.88501,90.78992z M203.76489,49.30994l13.16003-3.82983l29.83997,16.36987
			L203.76489,49.30994z M200.00488,48.22009l-14.31995-4.16992l14.31995-7.8501l14.31006,7.8501L200.00488,48.22009z
			 M200.50488,34.07019l-0.5-0.27002l-17.16992,9.40991l-29.89001-8.70996l47.05994-13.71021l47.05005,13.71021l-29.89001,8.70996
			L200.50488,34.07019z M183.07495,45.4801l13.15991,3.82983l-43,12.54004L183.07495,45.4801z M96.11499,90.78992l6.58997-12.01978
			l32.67004-9.52002L96.11499,90.78992z M92.67493,92.67004l-13.06995,7.17017l4.56995-15.67017l15.67004-4.56006L92.67493,92.67004
			z M101.2749,77.00012L82.47485,82.4801l-5.47998,18.79004l-27.28992,14.97998l23.57996-42.96997l42.95996-23.57007
			L101.2749,77.00012z M78.7749,102.70007l12.02002-6.59009L69.25488,135.37L78.7749,102.70007z M45.48486,183.07996
			l16.37012-29.83984l-12.54004,43L45.48486,183.07996z M49.31494,203.76013l12.54004,43l-16.37012-29.84009L49.31494,203.76013z
			 M90.79492,303.89001l-12.02002-6.6001L69.24487,264.62L90.79492,303.89001z M92.67493,307.32019l7.55994,13.77979
			l-15.84985-4.56006l-4.78003-16.38989L92.67493,307.32019z M82.5249,317.68005l0.16003,0.56006l18.96997,5.45996
			l14.58997,26.58984l-42.95996-23.56982l-23.57996-42.96997l27.28992,14.96997L82.5249,317.68005z M96.11499,309.21008
			l41.02002,22.5l-34.05005-9.79004L96.11499,309.21008z M195.85498,350.78992l-12.78003,3.73022l-28.34009-15.56006
			L195.85498,350.78992z M199.63501,351.88l14.48999,4.17017l-14.12012,7.75l-14.31995-7.8501L199.63501,351.88z
			 M199.49487,365.92004l0.51001,0.28003l16.98999-9.32007l30,8.63013l-46.98999,13.69995l-47.05994-13.71997l29.89001-8.70996
			L199.49487,365.92004z M216.74487,354.60999l-13.32996-3.82983l43.34998-12.63013L216.74487,354.60999z M303.88501,309.21008
			l-6.59009,12.01001l-32.66992,9.53003L303.88501,309.21008z M307.32495,307.32019l13.07007-7.17017l-4.57007,15.67017
			l-15.67004,4.56982L307.32495,307.32019z M298.72485,323.00012l18.80005-5.47998l5.47998-18.80005l27.29004-14.96997
			l-23.58008,42.96997l-42.95996,23.56982L298.72485,323.00012z M321.22485,297.28992l-12.0199,6.6001L330.74487,264.62
			L321.22485,297.28992z M338.14502,153.24011l16.36987,29.83984l-3.82996,13.16016L338.14502,153.24011z M350.68494,203.76013
			l3.82996,13.15991l-16.36987,29.84009L350.68494,203.76013z M351.7749,200.00012l4.17004-14.31006l7.85999,14.31006
			l-7.85999,14.30981L351.7749,200.00012z M365.92493,200.50012l0.28003-0.5l-9.42004-17.17017l8.70996-29.87988l13.71008,47.05005
			l-13.71008,47.05005l-8.70996-29.88013L365.92493,200.50012z M365.7749,144.47009l-0.28003,0.94995l-0.91992-3.13013
			L365.7749,144.47009z M364.39502,149.19006l-9.04004,31.03003l-19.93005-36.32007L323.83496,104.13l28.33997,15.55005
			l7.72998,14.08008L364.39502,149.19006z M357.18494,124.43005l-1.56995-2.87012l0.86987,0.49023L357.18494,124.43005z
			 M355.65491,119.19006l-1.93005-1.06006l-23.56995-42.96997l15.07996,8.28003L355.65491,119.19006z M338.76489,61.24011
			l5.63013,19.33984l-16.13013-8.84985l-8.83997-16.13013L338.76489,61.24011z M316.56494,54.76013l8.27002,15.08008
			l-42.96997-23.57007l-1.05005-1.92993L316.56494,54.76013z M277.95496,43.51013l0.47998,0.87988l-2.87-1.56982L277.95496,43.51013
			z M280.31494,47.82019l15.55005,28.33984l-39.77002-11.58984L219.7749,44.65002l31.04004-9.05005l15.41992,4.49023
			L280.31494,47.82019z M255.53491,34.22009l2.17004,1.19995l-3.13-0.91992L255.53491,34.22009z M200.00488,3.76013
			l52.92004,29.02979l-2.10999,0.62012l-68.47998-19.95996L200.00488,3.76013z M179.72485,14.88l16.52002,4.81006
			l-53.94995,15.72998L179.72485,14.88z M122.04492,43.51013l2.39001-0.68994l-2.87,1.56982L122.04492,43.51013z
			 M133.76489,40.09021l15.42004-4.49023l31.03992,9.05005l-36.31995,19.92017l-39.7699,11.58984l15.54993-28.33984
			L133.76489,40.09021z M119.19495,44.34021l-1.05994,1.92993L75.16492,69.84021l8.27002-15.07007L119.19495,44.34021z
			 M61.23486,61.24011l19.34009-5.64014L71.73486,71.7301l-16.12988,8.84985L61.23486,61.24011z M54.76489,83.43005
			l15.08008-8.27002L46.2749,118.13l-1.92993,1.06006L54.76489,83.43005z M43.51489,122.05017l0.87012-0.47998l-1.57007,2.85986
			L43.51489,122.05017z M40.09497,133.76013l7.72998-14.08008L76.16492,104.13l-11.58997,39.77002l-19.92993,36.32007
			l-9.04004-31.03003L40.09497,133.76013z M35.42493,142.28992l-0.92004,3.14014l-0.28003-0.95996L35.42493,142.28992z
			 M32.79492,147.07996l0.62,2.11011l-13.71997,47.05005l-4.80994-16.51001L32.79492,147.07996z M3.76489,200.00012
			l9.69006-17.65991l5.14001,17.65991l-5.14001,17.65991L3.76489,200.00012z M32.79492,252.92004l-17.90991-32.6499
			l4.80994-16.51001l13.71997,47.0498L32.79492,252.92004z M34.22485,255.53015l0.28003-0.95996l0.92004,3.13989L34.22485,255.53015
			z M35.60498,250.80994l9.04004-31.02979l19.92993,36.31006l11.58997,39.76978l-28.33997-15.55005l-7.72998-14.07983
			L35.60498,250.80994z M42.81494,275.57019l1.57007,2.85986l-0.87012-0.47998L42.81494,275.57019z M44.34497,280.80994
			l1.92993,1.05005l23.57007,42.96997l-15.08008-8.27002L44.34497,280.80994z M61.23486,338.76013l-5.62988-19.34009
			l16.12988,8.8501l8.84009,16.12988L61.23486,338.76013z M83.43494,345.2301l-8.27002-15.08008l42.97009,23.57007l1.05994,1.92993
			L83.43494,345.2301z M122.04492,356.4801l-0.47998-0.87012l2.87,1.57007L122.04492,356.4801z M119.68494,352.17004
			l-15.17004-27.6499l41.02002,11.80005l34.68994,19.02979l-31.03992,9.04004l-15.42004-4.48999L119.68494,352.17004z
			 M144.46484,365.77014l-2.16992-1.19019l3.13,0.91016L144.46484,365.77014z M147.07495,367.20007l2.10999-0.60986
			l47.05994,13.70996l-16.52002,4.80981L147.07495,367.20007z M200.00488,396.24011l-17.66992-9.68994l17.66992-5.15015
			l17.66003,5.15015L200.00488,396.24011z M220.2749,385.10999l-16.51001-4.80981l47.02002-13.7002l2.13,0.61011L220.2749,385.10999
			z M255.5249,365.77014l-0.95996-0.28003l3.14001-0.91016L255.5249,365.77014z M277.95496,356.4801l-2.39001,0.69995l2.87-1.57007
			L277.95496,356.4801z M266.23486,359.90002l-15.45996,4.51001l-31.15991-8.96997l36.47998-20.02002l39.77002-11.59009
			l-15.55005,28.34009L266.23486,359.90002z M280.81494,355.65002l1.05005-1.92993l42.96997-23.57007l-8.27002,15.08008
			L280.81494,355.65002z M338.76489,338.76013l-19.33997,5.63989l8.83997-16.12988l16.13013-8.8501L338.76489,338.76013z
			 M345.23486,316.55994l-15.07996,8.27002l23.56995-42.96997l1.93005-1.05005L345.23486,316.55994z M356.48486,277.95007
			l-0.86987,0.47998l1.56995-2.85986L356.48486,277.95007z M359.90491,266.2301l-7.72998,14.07983l-28.33997,15.55005
			l11.58997-39.76978l19.93005-36.31006l9.04004,31.02979L359.90491,266.2301z M364.57495,257.71008l0.91992-3.13989
			l0.28003,0.95996L364.57495,257.71008z M367.20496,252.92004l-0.62-2.11011l13.71997-47.0498l4.81006,16.51001
			L367.20496,252.92004z M386.54492,217.66003l-5.14001-17.65991l5.14001-17.67017l9.68994,17.67017L386.54492,217.66003z" fill="#5ca4a9" style=""></path>
	</g>
</g>


<desc>Created with Snap</desc><defs></defs></g><g><g transform="matrix(1.024,0,0,-1.024,0,0)"><path d="M130 585L130 52L283 52L386 194Q391 201 399 201Q408 201 413 196Q419 191 419 184Q419 178 415 170L342 16Q333 0 314 0L49 0Q25 0 25 26Q25 52 49 52L73 52L73 585L49 585Q25 585 25 611Q25 638 49 638L154 638Q179 638 179 611Q179 585 154 585L130 585ZM612 492Q698 492 745 436Q793 380 793 293Q793 155 803 106Q813 58 841 38Q858 30 858 16Q858 -10 834 -10Q810 -10 788 12Q767 35 754 68Q737 35 699 12Q662 -10 610 -10Q534 -10 486 37Q439 85 439 158Q439 232 489 284Q539 336 613 336Q688 336 738 287Q738 357 708 404Q678 452 616 452Q554 452 538 418Q547 397 547 383Q547 369 535 353Q523 337 505 337Q488 337 478 352Q468 367 468 387Q468 429 509 460Q551 492 612 492ZM494 163Q494 108 531 71Q568 34 619 34Q671 34 706 69Q741 105 741 156L741 165Q741 219 705 254Q669 289 616 289Q564 289 529 253Q494 218 494 163ZM911 0L899 0Q885 0 876 7Q868 15 868 25Q868 35 874 44L1118 435L951 435Q937 435 927 429Q917 423 915 414Q938 411 956 397Q975 384 975 366Q975 348 965 340Q956 333 944 333Q916 333 895 356Q875 379 875 409Q875 439 897 459Q920 480 951 480L1155 480Q1187 480 1187 458Q1187 448 1180 438L953 70Q987 91 1022 91Q1057 91 1099 51Q1121 29 1134 29Q1148 29 1150 43Q1140 51 1132 68Q1125 85 1125 99Q1125 113 1134 126Q1143 139 1161 139Q1180 139 1196 119Q1212 99 1212 64Q1212 30 1185 10Q1159 -10 1128 -10Q1098 -10 1056 16Q1014 42 985 42Q956 42 928 15L911 0ZM1283 428L1248 428Q1240 428 1233 436Q1227 445 1227 454Q1227 464 1233 472Q1240 480 1248 480L1367 480Q1375 480 1381 472Q1388 464 1388 454Q1388 445 1381 436Q1375 428 1367 428L1339 427L1473 117L1610 428L1586 428Q1577 428 1570 436Q1563 445 1563 454Q1563 464 1569 472Q1576 480 1586 480L1686 480Q1696 480 1702 472Q1709 464 1709 454Q1709 445 1702 436Q1695 428 1686 428L1662 428L1472 2Q1430 -95 1386 -116Q1364 -127 1331 -127Q1298 -127 1276 -107Q1255 -86 1255 -67Q1255 -29 1288 -29Q1313 -29 1327 -49Q1342 -68 1344 -89Q1386 -86 1425 4L1444 51L1283 428ZM2013 52L2037 52L2037 585L2013 585Q1989 585 1989 611Q1989 638 2013 638L2201 638Q2296 638 2358 583Q2421 529 2421 441Q2421 354 2357 295Q2294 236 2187 236L2094 236L2094 52L2124 52Q2148 52 2148 26Q2148 0 2124 0L2013 0Q1989 0 1989 26Q1989 52 2013 52ZM2094 580L2094 283L2203 283Q2275 283 2320 329Q2365 375 2365 442Q2365 509 2318 551Q2271 593 2206 593L2173 593Q2094 593 2094 580ZM2762 332Q2758 372 2726 409Q2694 446 2646 446Q2599 446 2568 411Q2537 376 2525 332L2762 332ZM2657 -10Q2566 -10 2511 61Q2456 132 2456 242Q2456 352 2508 421Q2561 490 2647 490Q2691 490 2726 470Q2761 451 2780 422Q2820 363 2820 310Q2820 282 2794 282L2514 282Q2512 269 2512 245Q2512 153 2553 94Q2595 35 2657 35Q2684 35 2706 49Q2728 64 2737 77Q2746 91 2757 114Q2769 137 2789 137Q2819 137 2819 110Q2819 75 2774 32Q2730 -10 2657 -10ZM3080 435L2948 435L2948 52L2967 52Q2979 52 2985 44Q2992 37 2992 26Q2992 0 2967 0L2872 0Q2846 0 2846 26Q2846 52 2872 52L2892 52L2892 428L2872 428Q2859 428 2852 436Q2845 444 2845 454Q2845 465 2852 472Q2859 480 2872 480L3057 480Q3108 480 3134 458Q3160 437 3160 404Q3160 387 3152 373Q3144 360 3126 360Q3108 360 3093 376Q3079 393 3078 411Q3078 430 3080 435ZM3283 591Q3317 632 3359 632Q3401 632 3422 612Q3444 593 3444 573Q3444 553 3434 543Q3424 534 3406 534Q3388 534 3372 552Q3357 571 3354 591Q3331 589 3315 554Q3299 520 3297 476L3348 476Q3358 476 3364 469Q3370 462 3370 452Q3370 443 3363 436Q3357 429 3348 429L3300 429L3300 52L3332 52Q3341 52 3348 44Q3355 36 3355 26Q3355 16 3348 8Q3342 0 3332 0L3216 0Q3190 0 3190 27Q3190 37 3196 44Q3203 52 3216 52L3244 52L3244 429L3211 429Q3201 429 3195 436Q3190 443 3190 452Q3190 476 3211 476L3247 476Q3250 550 3283 591ZM3801 224L3801 428L3778 428Q3767 428 3759 436Q3752 444 3752 454Q3752 464 3759 472Q3767 480 3778 480L3879 480Q3903 480 3903 454Q3903 428 3879 428L3857 428L3857 52L3894 52Q3917 52 3917 26Q3917 14 3910 7Q3903 0 3894 0L3823 0Q3811 0 3806 4Q3802 9 3802 21L3802 86Q3745 -7 3652 -7Q3579 -7 3544 42Q3509 92 3509 157L3509 428L3487 428Q3476 428 3470 436Q3464 444 3464 454Q3464 464 3470 472Q3476 480 3487 480L3589 480Q3600 480 3607 472Q3614 464 3614 454Q3614 444 3607 436Q3600 428 3589 428L3565 428L3565 156Q3565 112 3588 76Q3611 40 3662 40Q3714 40 3757 92Q3801 144 3801 224ZM4568 330L4568 52L4591 52Q4602 52 4608 44Q4614 36 4614 26Q4614 16 4608 8Q4602 0 4591 0L4495 0Q4484 0 4478 8Q4472 16 4472 26Q4472 36 4478 44Q4484 52 4495 52L4512 52L4512 316Q4512 378 4499 408Q4486 439 4446 439Q4407 439 4378 406Q4324 346 4324 258L4324 52L4344 52Q4356 52 4362 44Q4369 36 4369 25Q4369 15 4362 7Q4356 0 4344 0L4249 0Q4223 0 4223 26Q4223 52 4249 52L4269 52L4269 323Q4269 356 4265 379Q4261 402 4245 420Q4229 439 4201 439Q4146 439 4113 381Q4081 323 4081 260L4081 52L4101 52Q4110 52 4117 43Q4125 35 4125 25Q4125 16 4118 8Q4111 0 4101 0L3999 0Q3987 0 3980 8Q3973 16 3973 26Q3973 36 3980 44Q3987 52 3999 52L4025 52L4025 428L3990 428Q3980 428 3973 435Q3967 442 3967 454Q3967 467 3974 473Q3982 480 3990 480L4064 480Q4074 480 4077 477Q4081 474 4081 463L4081 398L4083 398Q4127 486 4208 486Q4290 486 4315 392Q4371 486 4453 486Q4516 486 4542 440Q4568 395 4568 330ZM4965 332Q4961 372 4929 409Q4897 446 4849 446Q4802 446 4771 411Q4740 376 4728 332L4965 332ZM4860 -10Q4769 -10 4714 61Q4659 132 4659 242Q4659 352 4711 421Q4764 490 4850 490Q4894 490 4929 470Q4964 451 4983 422Q5023 363 5023 310Q5023 282 4997 282L4717 282Q4715 269 4715 245Q4715 153 4756 94Q4798 35 4860 35Q4887 35 4909 49Q4931 64 4940 77Q4949 91 4960 114Q4972 137 4992 137Q5022 137 5022 110Q5022 75 4977 32Q4933 -10 4860 -10Z" fill="#343333" style=""></path></g></g><g transform="matrix(2,0,0,2,1656.832,-960.512)"><g transform="matrix(1.024,0,0,-1.024,0,0)"><path d="M130 585L130 52L283 52L386 194Q391 201 399 201Q408 201 413 196Q419 191 419 184Q419 178 415 170L342 16Q333 0 314 0L49 0Q25 0 25 26Q25 52 49 52L73 52L73 585L49 585Q25 585 25 611Q25 638 49 638L154 638Q179 638 179 611Q179 585 154 585L130 585ZM473 52L497 52L497 585L473 585Q449 585 449 611Q449 638 473 638L661 638Q756 638 818 583Q881 529 881 441Q881 354 817 295Q754 236 647 236L554 236L554 52L584 52Q608 52 608 26Q608 0 584 0L473 0Q449 0 449 26Q449 52 473 52ZM554 580L554 283L663 283Q735 283 780 329Q825 375 825 442Q825 509 778 551Q731 593 666 593L633 593Q554 593 554 580Z" fill="#343333" style=""></path></g></g></g></svg>